<svg viewBox="0 0 166 51" xmlns="http://www.w3.org/2000/svg">
<g id="g10">
<g id="body">
<path id="path230" d="M19.8259 45.68V45.18C18.9917 45.18 17.8915 44.7849 16.6251 44.0615C15.3732 43.3465 14.0172 42.3449 12.6876 41.2102C10.0244 38.9373 7.52148 36.177 6.22343 34.227C4.12321 31.0724 2.2484 26.0896 1.25089 21.8285C0.752258 19.6986 0.481186 17.7834 0.500839 16.3909C0.510742 15.69 0.594177 15.1621 0.73233 14.8138C0.868698 14.47 1.01604 14.3909 1.12389 14.3739C1.83705 14.2614 2.51143 14.1634 3.18103 14.0661C5.7099 13.6986 8.17059 13.341 12.4037 12.2523C39.6274 5.25352 58.6413 1.45527 74.1846 1.36268C89.6978 1.27027 101.765 4.8697 115.094 12.7123L115.233 12.7941L115.394 12.7792C118.305 12.5096 124.995 12.503 132.792 13.8283C140.59 15.1537 149.45 17.804 156.736 22.8173L156.736 22.8173C159.566 24.7647 161.902 26.7886 163.375 28.5011C164.114 29.3606 164.614 30.1164 164.86 30.7252C165.113 31.3503 165.051 31.6867 164.917 31.8619L164.917 31.8619C163.466 33.7481 160.564 37.1127 157.794 40.0055C156.408 41.452 155.065 42.7712 153.959 43.7255C153.405 44.2035 152.921 44.5809 152.528 44.836C152.331 44.9635 152.166 45.0541 152.035 45.1114C151.896 45.1717 151.827 45.18 151.81 45.18H151.793H151.772H151.749H151.723H151.694H151.662H151.627H151.589H151.549H151.506H151.46H151.411H151.36H151.306H151.249H151.189H151.127H151.062H150.994H150.924H150.85H150.775H150.696H150.615H150.532H150.445H150.357H150.265H150.171H150.075H149.975H149.874H149.77H149.663H149.554H149.442H149.328H149.211H149.092H148.97H148.846H148.72H148.591H148.46H148.326H148.19H148.052H147.911H147.768H147.622H147.475H147.325H147.172H147.018H146.861H146.701H146.54H146.376H146.21H146.042H145.872H145.699H145.524H145.348H145.168H144.987H144.804H144.618H144.431H144.241H144.049H143.855H143.659H143.461H143.261H143.059H142.855H142.649H142.441H142.23H142.018H141.804H141.588H141.37H141.15H140.928H140.704H140.479H140.251H140.022H139.79H139.557H139.322H139.085H138.847H138.606H138.364H138.12H137.874H137.627H137.377H137.126H136.873H136.619H136.363H136.105H135.845H135.584H135.321H135.056H134.79H134.522H134.253H133.982H133.709H133.435H133.159H132.881H132.603H132.322H132.04H131.757H131.472H131.185H130.897H130.608H130.317H130.025H129.731H129.436H129.139H128.841H128.542H128.241H127.939H127.636H127.331H127.025H126.717H126.408H126.098H125.787H125.474H125.161H124.846H124.529H124.212H123.893H123.573H123.252H122.929H122.606H122.281H121.955H121.628H121.3H120.971H120.641H120.309H119.977H119.643H119.309H118.973H118.637H118.299H117.96H117.621H117.28H116.938H116.596H116.252H115.908H115.562H115.216H114.869H114.521H114.171H113.822H113.471H113.119H112.767H112.414H112.059H111.705H111.349H110.992H110.635H110.277H109.919H109.559H109.199H108.838H108.476H108.114H107.751H107.388H107.023H106.658H106.293H105.927H105.56H105.192H104.825H104.456H104.087H103.717H103.347H102.976H102.605H102.233H101.861H101.488H101.115H100.742H100.367H99.9929H99.6179H99.2425H98.8668H98.4906H98.114H97.7371H97.3598H96.9822H96.6043H96.226H95.8474H95.4685H95.0893H94.7099H94.3301H93.9502H93.5699H93.1895H92.8088H92.4279H92.0469H91.6656H91.2842H90.9026H90.5208H90.1389H89.7569H89.3748H88.9925H88.6102H88.2278H87.8453H87.4627H87.0801H86.6975H86.3148H85.9322H85.5495H85.1668H84.7842H84.4016H84.019H83.6365H83.254H82.8716H82.4894H82.1072H81.7251H81.3431H80.9613H80.5796H80.1981H79.8168H79.4356H79.0546H78.6739H78.2933H77.913H77.5329H77.153H76.7735H76.3941H76.0151H75.6364H75.2579H74.8798H74.502H74.1246H73.7475H73.3708H72.9944H72.6185H72.2429H71.8677H71.493H71.1187H70.7448H70.3714H69.9984H69.626H69.254H68.8825H68.5115H68.1411H67.7712H67.4018H67.033H66.6648H66.2971H65.93H65.5636H65.1977H64.8325H64.4679H64.104H63.7407H63.3781H63.0162H62.6549H62.2944H61.9346H61.5755H61.2172H60.8596H60.5028H60.1467H59.7915H59.437H59.0834H58.7305H58.3785H58.0274H57.677H57.3276H56.979H56.6314H56.2846H55.9387H55.5938H55.2498H54.9067H54.5646H54.2235H53.8834H53.5442H53.206H52.8689H52.5328H52.1977H51.8637H51.5307H51.1988H50.868H50.5383H50.2097H49.8822H49.5558H49.2306H48.9065H48.5836H48.2618H47.9413H47.6219H47.3038H46.9869H46.6712H46.3567H46.0435H45.7316H45.421H45.1116H44.8035H44.4968H44.1914H43.8873H43.5845H43.2831H42.9831H42.6845H42.3872H42.0914H41.797H41.5039H41.2124H40.9223H40.6336H40.3464H40.0607H39.7765H39.4938H39.2126H38.933H38.6549H38.3783H38.1033H37.8299H37.558H37.2878H37.0192H36.7522H36.4868H36.223H35.961H35.7005H35.4418H35.1848H34.9294H34.6758H34.4238H34.1737H33.9252H33.6786H33.4337H33.1905H32.9492H32.7097H32.472H32.2361H32.002H31.7698H31.5395H31.311H31.0844H30.8597H30.6369H30.4161H30.1971H29.9801H29.7651H29.552H29.3409H29.1318H28.9246H28.7195H28.5164H28.3154H28.1163H27.9194H27.7245H27.5316H27.3409H27.1523H26.9658H26.7814H26.5991H26.419H26.241H26.0652H25.8916H25.7202H25.551H25.384H25.2192H25.0567H24.8964H24.7384H24.5826H24.4291H24.278H24.1291H23.9825H23.8383H23.6964H23.5569H23.4197H23.285H23.1525H23.0225H22.8949H22.7698H22.647H22.5267H22.4089H22.2935H22.1806H22.0702H21.9622H21.8568H21.754H21.6536H21.5558H21.4606H21.3679H21.2778H21.1903H21.1054H21.0231H20.9435H20.8665H20.7921H20.7204H20.6514H20.585H20.5214H20.4604H20.4022H20.3467H20.2939H20.2439H20.1967H20.1522H20.1105H20.0716H20.0355H20.0023H19.9718H19.9443H19.9195H19.8977H19.8787H19.8626H19.8494H19.8391H19.8318H19.8273C19.8264 45.18 19.8259 45.18 19.8259 45.68ZM165.313 32.1667L165.302 32.1582L165.313 32.1667Z"/>
<path id="path272" d="M73.6245 15.9534C74.9058 15.9534 76.1725 15.9427 77.4165 15.9174C81.2854 15.84 84.9912 15.6254 88.4281 15.3387C75.2618 15.3454 69.0232 15.3454 67.1498 10.9054C67.4938 12.5494 67.8045 14.1934 68.0525 15.6307C68.0792 15.784 68.2112 15.8907 68.3658 15.8947C70.1965 15.9347 71.9618 15.9534 73.6245 15.9534Z"/>
<path id="path274" d="M62.6818 15.3267C62.4272 13.9267 62.1178 12.372 61.7858 10.8667C61.7085 14.8547 57.7645 15.148 50.6432 15.052C54.2445 15.3013 58.2445 15.5373 62.3458 15.704C62.5538 15.7133 62.7192 15.5307 62.6818 15.3267Z"/>
</g>
<g id="Group_1" stroke="none">
<path id="path232" d="M119.018 36.292C119.018 43.12 124.552 48.6547 131.379 48.6547C138.206 48.6547 143.74 43.12 143.74 36.292C143.74 29.4667 138.206 23.932 131.379 23.932C124.552 23.932 119.018 29.4667 119.018 36.292Z" fill="white"/>
<path id="path234" d="M131.379 26.5561C136.748 26.5561 141.116 30.9241 141.116 36.2921C141.116 41.6614 136.748 46.0294 131.379 46.0294C126.01 46.0294 121.642 41.6614 121.642 36.2921C121.642 30.9241 126.01 26.5561 131.379 26.5561ZM131.379 50.624C139.281 50.624 145.71 44.1947 145.71 36.2921C145.71 28.3907 139.281 21.9614 131.379 21.9614C123.477 21.9614 117.048 28.3907 117.048 36.2921C117.048 44.1947 123.477 50.624 131.379 50.624Z" fill="#353132"/>
<path id="path236" d="M128.297 35.6133C129.178 35.0267 130.051 29.6454 130.051 24.0027L131.379 23.932L132.707 24.0027C132.707 29.6454 133.58 35.0267 134.461 35.6133C135.342 36.2013 131.379 36.2921 131.379 36.2921C131.379 36.2921 127.417 36.2013 128.297 35.6133Z" fill="#353132"/>
<path id="path238" d="M131.072 33.152C131.903 33.808 137.291 32.9747 142.657 31.2321L143.135 32.4734L143.478 33.7587C138.112 35.5014 133.264 37.9947 132.977 39.0134C132.691 40.0334 131.379 36.2921 131.379 36.2921C131.379 36.2921 130.242 32.496 131.072 33.152Z" fill="#353132"/>
<path id="path240" d="M134.271 35.0307C133.904 36.0227 136.361 40.8893 139.678 45.4547L138.645 46.2933L137.528 47.016C134.211 42.452 130.342 38.6107 129.285 38.6534C128.227 38.696 131.379 36.292 131.379 36.292C131.379 36.292 134.639 34.0374 134.271 35.0307Z" fill="#353132"/>
<path id="path242" d="M133.473 38.6534C132.416 38.6107 128.546 42.452 125.23 47.016L124.114 46.2933L123.081 45.4547C126.397 40.8893 128.854 36.0227 128.487 35.0307C128.119 34.0374 131.379 36.292 131.379 36.292C131.379 36.292 134.531 38.696 133.473 38.6534Z" fill="#353132"/>
<path id="path244" d="M129.781 39.0134C129.495 37.9947 124.646 35.5014 119.28 33.7587L119.623 32.4734L120.102 31.2321C125.467 32.9747 130.855 33.808 131.685 33.152C132.516 32.496 131.379 36.2921 131.379 36.2921C131.379 36.2921 130.067 40.0334 129.781 39.0134Z" fill="#353132"/>
<path id="path246" d="M129.41 36.292C129.41 37.38 130.292 38.2614 131.379 38.2614C132.466 38.2614 133.347 37.38 133.347 36.292C133.347 35.2054 132.466 34.324 131.379 34.324C130.292 34.324 129.41 35.2054 129.41 36.292Z" fill="white"/>
<path id="path248" d="M24.7512 27.552C19.9245 32.38 19.9245 40.2068 24.7512 45.0334C29.5792 49.8614 37.4058 49.8614 42.2325 45.0334C47.0605 40.2068 47.0605 32.38 42.2325 27.552C37.4058 22.724 29.5792 22.724 24.7512 27.552Z" fill="white"/>
<path id="path250" d="M33.4925 26.5534C36.0939 26.5534 38.5405 27.5668 40.3792 29.4054C42.2192 31.2454 43.2312 33.6907 43.2312 36.2921C43.2312 38.8947 42.2192 41.3401 40.3792 43.1787C38.5405 45.0187 36.0939 46.032 33.4925 46.032C30.8912 46.032 28.4459 45.0187 26.6059 43.1787C22.8086 39.3827 22.8086 33.2028 26.6059 29.4054C28.4459 27.5668 30.8912 26.5534 33.4925 26.5534ZM33.4925 50.6267C37.3219 50.6267 40.9205 49.1361 43.6285 46.4281C46.3352 43.7214 47.8272 40.1214 47.8272 36.2921C47.8272 32.4641 46.3352 28.8641 43.6285 26.1561C40.9205 23.4494 37.3219 21.9587 33.4925 21.9587C29.6632 21.9587 26.0646 23.4494 23.3566 26.1561C17.7672 31.7454 17.7672 40.8401 23.3566 46.4281C26.0646 49.1361 29.6632 50.6267 33.4925 50.6267Z" fill="#353132"/>
<path id="path252" d="M31.7939 33.6333C32.8312 33.8413 37.2539 30.652 41.2432 26.664L42.2325 27.5519L43.1219 28.5426C39.1326 32.5306 35.9446 36.9546 36.1526 37.992C36.3592 39.0293 33.4925 36.292 33.4925 36.292C33.4925 36.292 30.7552 33.4253 31.7939 33.6333Z" fill="#353132"/>
<path id="path254" d="M35.4965 33.8547C35.6192 34.9067 40.0192 38.1267 45.0458 40.688L44.5058 41.904L43.8392 43.056C38.8125 40.4947 33.6205 38.8293 32.6978 39.3467C31.7752 39.8653 33.4925 36.292 33.4925 36.292C33.4925 36.292 35.3738 32.804 35.4965 33.8547Z" fill="#353132"/>
<path id="path256" d="M36.4299 37.4454C35.4685 37.888 33.7645 43.0667 32.8819 48.6387L31.5592 48.5014L30.2579 48.2227C31.1405 42.6507 31.1205 37.1987 30.3419 36.4814C29.5645 35.764 33.4925 36.2921 33.4925 36.2921C33.4925 36.2921 37.3912 37.004 36.4299 37.4454Z" fill="#353132"/>
<path id="path258" d="M33.3032 39.4427C32.5858 38.6653 27.1338 38.6454 21.5618 39.528L21.2832 38.2267L21.1458 36.9027C26.7192 36.02 31.8978 34.316 32.3392 33.3546C32.7818 32.3933 33.4925 36.292 33.4925 36.292C33.4925 36.292 34.0218 40.2213 33.3032 39.4427Z" fill="#353132"/>
<path id="path260" d="M30.4379 37.0868C30.9566 36.1641 29.2912 30.9734 26.7299 25.9454L27.8805 25.2787L29.0965 24.7401C31.6579 29.7667 34.8792 34.1654 35.9299 34.2881C36.9819 34.4121 33.4925 36.2921 33.4925 36.2921C33.4925 36.2921 29.9205 38.0094 30.4379 37.0868Z" fill="#353132"/>
<path id="path262" d="M32.1005 34.9013C31.3312 35.6693 31.3312 36.916 32.1005 37.6853C32.8685 38.4533 34.1152 38.4533 34.8845 37.6853C35.6525 36.916 35.6525 35.6693 34.8845 34.9013C34.1152 34.132 32.8685 34.132 32.1005 34.9013Z" fill="white"/>
<path id="path270" d="M65.1619 5.90272C65.1045 5.69205 65.2419 5.48269 65.4566 5.44536C67.7152 5.04003 69.9299 4.73867 72.0232 4.59067C88.1699 3.45201 100.06 7.61735 109.706 12.6374C109.917 12.748 109.878 13.0627 109.645 13.112C106.576 13.7694 93.4645 16.376 77.4325 16.6987C74.3019 16.7613 71.0232 16.74 67.7379 16.6627C67.5606 16.6573 67.4112 16.5334 67.3819 16.3587C66.8605 13.216 66.0072 8.98272 65.1619 5.90272Z" fill="white" stroke="#555"/>
<path id="path276" d="M49.8005 23.9321C52.4272 30.9134 52.7552 37.3387 52.4272 39.5454H55.5472C56.0779 36.1054 54.6405 27.0467 52.7592 23.9321H49.8005Z" fill="white"/>
<path id="path278" d="M56.6992 38.9494C56.6992 39.2787 56.9645 39.5454 57.2939 39.5454H108.64C96.8265 38.5227 58.0285 40.9654 56.6992 36.8134V38.9494Z" fill="white"/>
<path id="path280" d="M67.8192 19.364C68.4525 25.1147 70.3152 32.4453 71.4325 37.2186C70.1378 31.7386 68.4778 19.364 68.4778 19.364H67.8192Z" fill="white"/>
<path id="path282" d="M146.652 18.4534C140.237 15.4347 133.898 13.8787 125.85 13.5734C132.216 14.2747 146.652 18.4534 146.652 18.4534Z" fill="white"/>
<path id="path264" d="M29.5205 14.052C15.4885 12.9707 6.92584 13.0013 4.98584 13.2907C4.98318 13.292 4.98183 13.292 4.97783 13.292C6.60983 13.0374 8.3925 12.7134 10.7792 12.14C15.1538 12.432 21.8712 12.7893 29.5205 14.052Z" fill="white"/>
<path id="path266" d="M155.902 22.596C152.551 22.7693 149.425 22.568 147.369 22.3653C146.692 22.2987 146.378 23.184 146.947 23.556C149.855 25.4574 155.666 28.5013 163.076 28.5013C161.308 26.1893 155.902 22.596 155.902 22.596Z" fill="white"/>
<path id="path284" d="M0.637884 17.8373C1.68722 17.5026 2.68455 18.5586 2.98455 19.8493C3.28455 21.1399 3.66188 22.7813 3.76855 23.8706C3.87521 24.9613 3.45388 25.7853 2.75121 25.7853C2.38855 25.7866 1.85921 24.388 1.26054 21.968C0.66054 19.548 0.445884 17.9 0.637884 17.8373Z" fill="white"/>
<path id="path268" d="M63.2952 16.524C51.8045 16.088 41.0286 15.0947 37.1472 14.712C36.7512 14.6733 36.6765 14.1293 37.0459 13.9826C40.7126 12.528 50.9259 8.64667 61.1486 6.32267C61.3139 6.284 61.4792 6.37732 61.5259 6.53998C62.2685 9.16265 63.0819 13.0347 63.6246 16.1587C63.6592 16.3573 63.4979 16.532 63.2952 16.524Z" fill="white" stroke="#555"/>
</g>
</g>
</svg>
